<?xml version="1.0" encoding="UTF-8"?>
<svg xmlns="http://www.w3.org/2000/svg" xmlns:xlink="http://www.w3.org/1999/xlink" width="27px" height="27px" viewBox="0 0 27 26" version="1.1">
<g id="surface1">
<path style=" stroke:none;fill-rule:evenodd;fill:rgb(14.117648%,16.078432%,18.431373%);fill-opacity:1;" d="M 13.460938 0 C 6.265625 0 0.449219 5.957031 0.449219 13.328125 C 0.449219 19.222656 4.175781 24.210938 9.347656 25.976562 C 9.992188 26.109375 10.230469 25.6875 10.230469 25.335938 C 10.230469 25.027344 10.210938 23.964844 10.210938 22.863281 C 6.589844 23.65625 5.835938 21.277344 5.835938 21.277344 C 5.253906 19.730469 4.390625 19.332031 4.390625 19.332031 C 3.207031 18.515625 4.480469 18.515625 4.480469 18.515625 C 5.792969 18.601562 6.484375 19.886719 6.484375 19.886719 C 7.648438 21.914062 9.519531 21.34375 10.273438 20.988281 C 10.382812 20.125 10.726562 19.53125 11.09375 19.199219 C 8.207031 18.890625 5.167969 17.742188 5.167969 12.621094 C 5.167969 11.167969 5.683594 9.972656 6.503906 9.050781 C 6.375 8.71875 5.921875 7.347656 6.632812 5.515625 C 6.632812 5.515625 7.730469 5.164062 10.210938 6.886719 C 11.265625 6.59375 12.359375 6.445312 13.460938 6.445312 C 14.558594 6.445312 15.679688 6.597656 16.714844 6.886719 C 19.191406 5.164062 20.289062 5.515625 20.289062 5.515625 C 21.003906 7.347656 20.546875 8.71875 20.417969 9.050781 C 21.257812 9.972656 21.753906 11.167969 21.753906 12.621094 C 21.753906 17.742188 18.71875 18.871094 15.808594 19.199219 C 16.285156 19.617188 16.691406 20.414062 16.691406 21.671875 C 16.691406 23.457031 16.671875 24.894531 16.671875 25.335938 C 16.671875 25.6875 16.90625 26.109375 17.554688 25.976562 C 22.726562 24.210938 26.453125 19.222656 26.453125 13.328125 C 26.472656 5.957031 20.632812 0 13.460938 0 Z M 13.460938 0 "/>
</g>
</svg>
