<?xml version="1.0" encoding="UTF-8"?>
<svg xmlns="http://www.w3.org/2000/svg" xmlns:xlink="http://www.w3.org/1999/xlink" width="27px" height="27px" viewBox="0 0 27 27" version="1.1">
<g id="surface1">
<path style=" stroke:none;fill-rule:nonzero;fill:rgb(0%,0%,0%);fill-opacity:1;" d="M 22.46875 3.660156 C 24.980469 6.011719 26.644531 9.273438 26.773438 12.75 C 26.886719 16.4375 25.703125 19.90625 23.179688 22.625 C 20.699219 25.253906 17.371094 26.738281 13.757812 26.863281 C 10.144531 26.941406 6.746094 25.59375 4.136719 23.109375 C 1.59375 20.636719 0.121094 17.28125 0.0625 13.722656 C 0.03125 9.988281 1.460938 6.636719 4.050781 3.976562 C 8.535156 -0.578125 15.765625 -0.996094 22.46875 3.660156 Z M 22.46875 3.660156 "/>
<path style=" stroke:none;fill-rule:nonzero;fill:rgb(100%,100%,100%);fill-opacity:1;" d="M 19.277344 3.75 C 19.367188 3.882812 19.367188 3.882812 19.4375 4.039062 C 19.460938 4.09375 19.488281 4.140625 19.511719 4.195312 C 19.671875 4.585938 19.671875 4.585938 19.601562 4.8125 C 19.578125 4.867188 19.554688 4.925781 19.53125 4.980469 C 19.503906 5.039062 19.480469 5.09375 19.457031 5.148438 C 19.210938 5.550781 18.832031 5.820312 18.46875 6.101562 C 18.289062 6.242188 18.105469 6.382812 17.925781 6.523438 C 17.851562 6.582031 17.78125 6.636719 17.703125 6.695312 C 17.644531 6.746094 17.585938 6.796875 17.523438 6.847656 C 17.46875 6.890625 17.417969 6.933594 17.359375 6.976562 C 17.234375 7.121094 17.234375 7.121094 17.21875 7.347656 C 17.253906 7.609375 17.320312 7.714844 17.484375 7.917969 C 18.25 8.945312 18.542969 10.097656 18.40625 11.363281 C 18.214844 12.578125 17.609375 13.78125 16.605469 14.515625 C 15.25 15.421875 13.957031 15.566406 12.375 15.300781 C 12.273438 15.273438 12.175781 15.25 12.078125 15.226562 C 11.828125 15.167969 11.644531 15.152344 11.402344 15.226562 C 11.132812 15.46875 10.933594 15.753906 10.726562 16.046875 C 10.632812 16.15625 10.546875 16.261719 10.460938 16.367188 C 10.25 16.648438 10.234375 16.832031 10.277344 17.171875 C 10.511719 17.292969 10.765625 17.257812 11.023438 17.253906 C 11.152344 17.253906 11.277344 17.253906 11.402344 17.25 C 11.46875 17.25 11.535156 17.25 11.601562 17.25 C 12.589844 17.242188 13.578125 17.242188 14.566406 17.273438 C 14.679688 17.277344 14.679688 17.277344 14.796875 17.28125 C 15.792969 17.3125 16.714844 17.527344 17.46875 18.203125 C 17.585938 18.332031 17.679688 18.457031 17.773438 18.601562 C 17.804688 18.648438 17.835938 18.6875 17.867188 18.738281 C 18.203125 19.320312 18.203125 19.992188 18.0625 20.644531 C 17.867188 21.289062 17.574219 21.714844 17.015625 22.09375 C 16.390625 22.40625 15.824219 22.464844 15.132812 22.476562 C 14.988281 22.480469 14.988281 22.480469 14.835938 22.484375 C 13.164062 22.523438 11.496094 22.515625 9.828125 22.476562 C 9.730469 22.476562 9.640625 22.472656 9.542969 22.472656 C 9.457031 22.46875 9.367188 22.464844 9.28125 22.464844 C 9.207031 22.460938 9.132812 22.457031 9.054688 22.457031 C 8.8125 22.417969 8.667969 22.34375 8.476562 22.203125 C 8.332031 21.890625 8.300781 21.675781 8.398438 21.359375 C 8.496094 21.132812 8.550781 21.078125 8.757812 20.929688 C 9.226562 20.773438 9.648438 20.773438 10.136719 20.839844 C 11.257812 20.976562 12.382812 21.007812 13.515625 21.011719 C 13.617188 21.011719 13.71875 21.011719 13.820312 21.015625 C 14.929688 21.039062 14.929688 21.039062 15.902344 20.546875 C 16.117188 20.292969 16.164062 20.0625 16.152344 19.722656 C 16.105469 19.460938 16.003906 19.320312 15.824219 19.125 C 14.578125 18.261719 12.3125 18.648438 10.886719 18.730469 C 10.074219 18.773438 9.328125 18.753906 8.625 18.296875 C 8.378906 17.964844 8.304688 17.585938 8.339844 17.171875 C 8.492188 16.304688 9.0625 15.613281 9.578125 14.929688 C 9.804688 14.625 9.859375 14.46875 9.820312 14.078125 C 9.714844 13.761719 9.503906 13.523438 9.292969 13.265625 C 8.5625 12.375 8.273438 11.296875 8.34375 10.152344 C 8.488281 8.800781 9.066406 7.617188 10.125 6.75 C 11.296875 5.929688 12.671875 5.535156 14.101562 5.777344 C 14.570312 5.890625 15.011719 6.039062 15.445312 6.242188 C 15.808594 6.410156 15.808594 6.410156 16.199219 6.375 C 16.59375 5.808594 16.882812 5.179688 17.1875 4.5625 C 17.230469 4.484375 17.273438 4.402344 17.3125 4.316406 C 17.367188 4.207031 17.367188 4.207031 17.421875 4.09375 C 17.609375 3.808594 17.832031 3.644531 18.136719 3.5 C 18.539062 3.417969 18.929688 3.535156 19.277344 3.75 Z M 19.277344 3.75 "/>
<path style=" stroke:none;fill-rule:nonzero;fill:rgb(0%,0%,0%);fill-opacity:1;" d="M 15.507812 7.335938 C 16.039062 7.777344 16.457031 8.382812 16.578125 9.074219 C 16.660156 10.609375 16.273438 12.003906 15.265625 13.195312 C 14.742188 13.75 14.070312 14.277344 13.277344 14.34375 C 12.449219 14.359375 11.792969 14.261719 11.148438 13.707031 C 11.027344 13.589844 10.914062 13.472656 10.800781 13.347656 C 10.753906 13.300781 10.707031 13.253906 10.664062 13.203125 C 10.210938 12.667969 10.078125 12.007812 10.105469 11.320312 C 10.246094 9.8125 10.960938 8.566406 12.09375 7.578125 C 13.121094 6.808594 14.398438 6.597656 15.507812 7.335938 Z M 15.507812 7.335938 "/>
</g>
</svg>
